<?xml version="1.0" encoding="UTF-8" standalone="no"?>
<svg
   xmlns:dc="http://purl.org/dc/elements/1.1/"
   xmlns:cc="http://creativecommons.org/ns#"
   xmlns:rdf="http://www.w3.org/1999/02/22-rdf-syntax-ns#"
   xmlns:svg="http://www.w3.org/2000/svg"
   xmlns="http://www.w3.org/2000/svg"
   xmlns:sodipodi="http://sodipodi.sourceforge.net/DTD/sodipodi-0.dtd"
   xmlns:inkscape="http://www.inkscape.org/namespaces/inkscape"
   sodipodi:docname="Logo of Polk County, Florida.svg"
   inkscape:version="1.1-dev (ddb55ca, 2020-02-02)"
   id="svg3070"
   version="1.1"
   viewBox="0 0 279.83777 281.30502"
   height="281.30502mm"
   width="279.83777mm">
  <defs
     id="defs3064" />
  <sodipodi:namedview
     inkscape:window-maximized="0"
     inkscape:window-y="23"
     inkscape:window-x="0"
     inkscape:window-height="1324"
     inkscape:window-width="2560"
     fit-margin-bottom="0"
     fit-margin-right="0"
     fit-margin-left="0"
     fit-margin-top="0"
     showgrid="false"
     inkscape:current-layer="layer1"
     inkscape:document-units="mm"
     inkscape:cy="504.97015"
     inkscape:cx="519.00388"
     inkscape:zoom="0.80647338"
     inkscape:pageshadow="2"
     inkscape:pageopacity="0.0"
     borderopacity="1.0"
     bordercolor="#666666"
     pagecolor="#ffffff"
     id="base" />
  <metadata
     id="metadata3067">
    <rdf:RDF>
      <cc:Work
         rdf:about="">
        <dc:format>image/svg+xml</dc:format>
        <dc:type
           rdf:resource="http://purl.org/dc/dcmitype/StillImage" />
        <dc:title></dc:title>
      </cc:Work>
    </rdf:RDF>
  </metadata>
  <g
     transform="translate(80.854621,-9.4747758)"
     id="layer1"
     inkscape:groupmode="layer"
     inkscape:label="Layer 1">
    <g
       transform="matrix(2.2023099,0,0,2.2023099,-71.013548,-349.60739)"
       id="g3692">
      <path
         style="fill:#61b145;fill-opacity:1;stroke-width:2.73392"
         d="m 135.48652,714.37288 c -8.83849,-4.00951 -38.532759,-13.26927 -56.161056,-17.51307 -10.368027,-2.49598 -19.625418,-4.82577 -20.571979,-5.17732 -1.202652,-0.44666 0.778006,-1.14502 6.575915,-2.31859 7.379557,-1.49371 12.077806,-1.67092 42.4917,-1.60272 28.7979,0.0646 37.16885,0.38588 53.03876,2.03572 18.05704,1.87722 27.05498,3.16203 27.87289,3.97995 0.20947,0.20946 -1.14139,1.02115 -3.00188,1.80375 -1.8605,0.7826 -6.34189,2.65515 -9.95864,4.16121 -3.61676,1.50606 -12.58138,5.8208 -19.92139,9.58831 -7.34001,3.76751 -14.04744,6.84135 -14.90541,6.83076 -0.85796,-0.0106 -3.31447,-0.81519 -5.45891,-1.788 z"
         id="path3647"
         inkscape:connector-curvature="0"
         transform="scale(0.26458333)" />
      <path
         style="fill:#61b145;fill-opacity:1;stroke-width:2.73392"
         d="m 289.26145,819.87948 c -10.9187,-13.84055 -30.61803,-32.45805 -49.33748,-46.62801 l -7.30653,-5.53079 2.4842,-2.62919 c 4.94198,-5.23041 24.06412,-20.02009 25.10844,-19.41967 7.77147,4.46811 27.2696,17.41705 36.55899,24.27927 12.71211,9.39063 18.04548,13.75677 29.97761,24.54105 9.48277,8.57054 28.76724,30.3058 28.76724,32.42316 0,0.29296 -13.54165,0.56022 -30.09256,0.59391 l -30.09256,0.0613 -6.06735,-7.69099 z"
         id="path3649"
         inkscape:connector-curvature="0"
         transform="scale(0.26458333)" />
      <path
         style="fill:#61b145;fill-opacity:1;stroke-width:2.73392"
         d="m 340.31919,796.1871 c -7.02579,-8.22557 -23.13817,-23.31143 -33.32223,-31.19928 -10.89985,-8.44224 -27.92227,-20.0723 -34.43907,-23.52945 -2.11533,-1.12218 -3.84606,-2.32672 -3.84606,-2.67676 0,-0.58889 13.5415,-9.71435 19.84335,-13.3722 l 2.74596,-1.59387 12.59784,6.57211 c 19.90005,10.38157 42.2275,24.3357 54.24531,33.90203 6.79565,5.40944 23.12416,20.00946 25.65384,22.9382 1.33042,1.5403 4.19094,4.77143 6.35672,7.1803 2.16578,2.40886 3.93777,4.73163 3.93777,5.16171 0,0.43988 -10.98377,0.78196 -25.10808,0.78196 h -25.10808 z"
         id="path3651"
         inkscape:connector-curvature="0"
         transform="scale(0.26458333)" />
      <path
         style="fill:#2aabb8;fill-opacity:1;stroke-width:2.73392"
         d="m 88.671942,873.78291 c 11.562008,-39.10872 39.248218,-80.56616 75.831378,-113.55025 10.40402,-9.38046 13.35489,-11.787 27.92789,-22.77618 8.37936,-6.31869 24.98113,-17.37142 32.74304,-21.79889 3.30053,-1.88265 7.83791,-4.52342 10.08307,-5.86838 2.24515,-1.34495 9.2113,-4.9915 15.48034,-8.10344 13.27268,-6.58853 14.76677,-7.41787 14.26594,-7.9187 -0.97097,-0.97097 -29.14494,10.42633 -45.67799,18.47824 -48.56654,23.65282 -88.82751,57.27545 -113.80542,95.04084 l -4.69216,7.09432 H 75.755864 c -13.789691,0 -25.309568,-0.2374 -25.599726,-0.52756 -0.290158,-0.29016 1.670892,-3.74251 4.357889,-7.6719 15.258072,-22.31297 36.410169,-44.04225 60.309443,-61.95513 18.13135,-13.58973 52.48607,-32.33962 76.29256,-41.63844 42.75268,-16.69921 89.52114,-27.07468 140.19433,-31.10178 11.28322,-0.8967 59.95176,-1.28294 59.13815,-0.46932 -0.23607,0.23607 -5.13513,1.86823 -10.88679,3.62703 -30.84789,9.43294 -66.47863,25.70108 -96.82127,44.20626 -6.39726,3.90152 -25.83677,17.07313 -30.23415,20.48572 -41.03732,31.84707 -69.32293,65.07363 -87.16747,102.39393 -6.88153,14.3921 -9.13417,19.85405 -11.95405,28.98487 l -2.36931,7.6719 H 119.16328 87.311081 Z"
         id="path3653"
         inkscape:connector-curvature="0"
         transform="scale(0.26458333)" />
      <path
         style="fill:#ffc508;fill-opacity:1;stroke-width:2.73392"
         d="m 194.62318,685.86546 c -8.68297,-1.61837 -24.21142,-3.56808 -38.81722,-4.87379 -6.88245,-0.61526 -12.89191,-1.35249 -13.35433,-1.63829 -1.69375,-1.04679 4.86507,-15.57153 11.93773,-26.43655 4.58442,-7.04259 15.37972,-17.98992 22.52489,-22.84211 8.80882,-5.98196 18.77377,-10.23053 29.54525,-12.59667 6.74153,-1.48089 27.14884,-1.67847 33.14924,-0.32095 9.48648,2.1462 12.35315,3.028 19.02002,5.85062 9.39856,3.97916 15.26735,8.04177 23.75423,16.44358 6.95651,6.88679 9.55661,10.36323 14.53575,19.4349 3.94612,7.18958 3.71401,7.56003 -5.4104,8.63511 -11.07421,1.30481 -47.93608,8.71665 -54.3609,10.93038 -1.20559,0.4154 -5.94025,1.82645 -10.52147,3.13567 -4.58122,1.30923 -10.52581,3.11804 -13.2102,4.01958 -5.51447,1.85201 -9.91811,1.91258 -18.79259,0.25852 z"
         id="path3655"
         inkscape:connector-curvature="0"
         transform="scale(0.26458333)" />
      <path
         style="fill:#4e4e50;fill-opacity:1;stroke-width:2.73392"
         d="m -15.508498,1041.7362 c -0.478843,-0.5762 -0.741696,-1.9411 -0.58412,-3.033 0.222378,-1.541 1.071478,-2.1362 3.793658,-2.6592 7.9521707,-1.5278 10.0517159,-2.495 11.61234378,-5.3496 1.40840417,-2.5761 1.56320999,-7.1459 1.81809252,-53.66962 0.1532328,-27.96956 0.017273,-53.37497 -0.30213443,-56.45646 -0.67982166,-6.55863 -2.81888367,-9.34516 -7.76960737,-10.12137 -1.741697,-0.27308 -4.5095705,-0.70452 -6.1508285,-0.95875 -4.691032,-0.72665 -5.179631,-5.84674 -0.66274,-6.94494 1.282415,-0.31179 12.78736873,-0.78253 25.566565,-1.04609 27.616365,-0.56955 37.304489,0.47543 47.052472,5.07517 14.009042,6.61039 22.234171,19.70407 22.203431,35.34591 -0.04377,22.27457 -16.507045,37.51306 -43.558774,40.31823 -4.828726,0.50072 -5.531095,0.37195 -6.353575,-1.16487 -1.521706,-2.84333 -0.340138,-3.94887 6.415675,-6.00286 8.074794,-2.45499 14.062858,-6.47079 17.789197,-11.93004 4.135097,-6.05809 5.107118,-10.17453 5.11043,-21.64234 0.0028,-9.65074 -0.125684,-10.36276 -2.878865,-15.95524 -3.776255,-7.67062 -9.117741,-12.39854 -16.62844,-14.71836 -7.17159,-2.21508 -18.709291,-2.42144 -20.75943,-0.3713 -1.224303,1.2243 -1.373557,7.54952 -1.339626,56.77207 0.021,30.46684 0.370789,57.11606 0.777306,59.22036 1.138327,5.8927 3.857344,8.0076 11.758309,9.1459 6.925909,0.9977 8.055656,1.8434 6.842832,5.122 -0.686297,1.8552 -0.973062,1.8763 -26.787637,1.9737 -19.2674358,0.073 -26.321677,-0.1757 -26.964534,-0.9493 z"
         id="path3657"
         inkscape:connector-curvature="0"
         transform="scale(0.26458333)" />
      <path
         style="fill:#4e4e50;fill-opacity:1;stroke-width:2.73392"
         d="m 140.39713,1042.6686 c -17.78027,-3.8139 -31.70529,-13.7895 -40.797314,-29.2266 -6.938568,-11.7807 -10.360481,-28.01462 -8.808266,-41.78727 1.927283,-17.10058 8.18573,-30.47626 19.65991,-42.01758 17.4373,-17.53932 43.50068,-23.12906 68.82241,-14.76014 19.02003,6.28619 33.44329,22.9219 38.63033,44.55604 2.10799,8.79203 2.28763,24.80216 0.38003,33.87056 -5.10628,24.27439 -22.95064,43.14589 -46.37861,49.04829 -8.35823,2.1057 -22.50515,2.2479 -31.50849,0.3167 z m 28.36079,-7.5373 c 10.39185,-3.1081 21.01671,-12.2164 25.1483,-21.5587 7.303,-16.51335 8.11742,-36.62852 2.33173,-57.59075 -2.70776,-9.81053 -7.0676,-17.77729 -13.32966,-24.35733 -5.85983,-6.15737 -11.97212,-9.78352 -19.47044,-11.55093 -19.39588,-4.57175 -37.3417,3.81532 -46.31538,21.64572 -4.53219,9.00532 -6.23261,17.55573 -6.23261,31.3402 0,28.40579 10.94176,50.48449 29.40357,59.33169 9.00941,4.3174 19.73781,5.3502 28.46449,2.7401 z"
         id="path3659"
         inkscape:connector-curvature="0"
         transform="scale(0.26458333)" />
      <path
         style="fill:#4e4e50;fill-opacity:1;stroke-width:2.73392"
         d="m 221.36524,1038.501 c 0,-2.9552 0.0212,-2.9704 5.04062,-3.5975 5.71656,-0.7142 9.29902,-2.2899 10.41613,-4.5814 0.89258,-1.8309 1.57952,-93.17249 0.75217,-100.01493 -0.83334,-6.89191 -3.09146,-9.0623 -10.12807,-9.73458 l -5.64245,-0.53908 v -3.06127 -3.06128 l 24.11169,0.0222 24.11169,0.0222 v 3.03911 c 0,3.03169 -0.0118,3.04046 -4.82234,3.59638 -2.65229,0.3065 -5.45734,0.82062 -6.23345,1.14249 -3.76908,1.56311 -3.84962,2.6906 -3.84962,53.8902 0,46.83206 0.0674,48.85936 1.71505,51.58336 3.08504,5.1003 6.11099,5.8997 22.39664,5.9171 9.77031,0.01 15.52573,-0.3596 17.72813,-1.1398 3.9458,-1.3976 7.65284,-5.8825 11.29429,-13.6641 3.07041,-6.5613 3.56365,-7.0359 6.53736,-6.2895 3.33041,0.8359 2.95709,3.8834 -2.66636,21.7664 l -2.41248,7.6719 h -44.1745 -44.1745 z"
         id="path3661"
         inkscape:connector-curvature="0"
         transform="scale(0.26458333)" />
      <path
         style="fill:#4e4e50;fill-opacity:1;stroke-width:2.73392"
         d="m 439.11709,1058.0775 c -5.96841,-3.1183 -13.02209,-9.7925 -27.74627,-26.2534 -5.82327,-6.5102 -16.55758,-18.1495 -23.85401,-25.8653 -7.29644,-7.71573 -15.2133,-16.19731 -17.59303,-18.84795 -8.8664,-9.87573 -11.43926,-10.92447 -12.91338,-5.26373 -1.09046,4.18742 -0.28397,43.63848 0.95336,46.63568 1.22583,2.9694 3.45766,4.1696 8.96686,4.8221 4.97034,0.5886 6.54658,1.9572 5.77857,5.0172 l -0.53633,2.1369 -23.01568,-0.1527 -23.01568,-0.1527 -0.28651,-2.0211 c -0.33588,-2.3693 1.21724,-4.5528 3.24343,-4.5597 0.78486,0 2.93812,-0.4245 4.78502,-0.9374 5.95198,-1.6527 5.84845,-0.657 5.84692,-56.24005 -0.001,-45.2343 -0.12914,-49.60121 -1.53438,-52.39102 -1.65682,-3.28928 -3.65381,-4.18172 -9.67083,-4.32181 -4.05745,-0.0945 -5.12775,-1.27537 -4.2664,-4.70725 l 0.49835,-1.98557 22.9724,0.0446 c 22.02229,0.0427 22.99826,0.11584 23.59775,1.76833 1.08822,2.99967 -0.51605,4.50187 -5.42918,5.08376 -6.49544,0.76929 -7.81086,2.40401 -8.69126,10.80095 -1.01339,9.66549 -0.98726,34.8133 0.039,37.51253 0.47279,1.24354 1.55078,2.25162 2.41116,2.2548 2.73752,0.0101 47.15876,-46.44659 46.44863,-48.57698 -0.17428,-0.52282 -1.8385,-1.37752 -3.69829,-1.89932 -4.03754,-1.13282 -5.67387,-3.19769 -4.28229,-5.40379 0.85777,-1.35986 2.97438,-1.51557 20.85743,-1.53438 l 19.90278,-0.021 0.49477,1.97082 c 0.81634,3.25176 -0.2054,4.33066 -4.66122,4.92194 -5.88747,0.78127 -13.74614,4.70058 -20.47014,10.20898 -8.60451,7.04894 -37.69178,36.12908 -37.69178,37.68254 0,4.32704 47.50098,54.69332 72.55427,76.93082 7.8363,6.9556 14.24782,12.9494 14.24782,13.3196 0,1.2822 -6.80734,2.7042 -12.94533,2.7042 -5.17344,0 -6.99182,-0.4315 -11.29652,-2.6806 z"
         id="path3663"
         inkscape:connector-curvature="0"
         transform="scale(0.26458333)" />
      <path
         style="fill:#4e4e50;fill-opacity:1;stroke-width:1.36696"
         d="m 76.256294,1098.5648 c -6.280248,-1.6903 -10.794334,-6.5288 -12.429857,-13.3232 -0.64532,-2.6808 -0.615266,-4.7632 0.112666,-7.8064 0.835652,-3.4936 1.859486,-5.4272 4.270442,-8.0652 5.503983,-6.0222 14.890874,-7.2249 22.483863,-2.8806 3.367258,1.9266 3.527632,2.3822 1.580643,4.4908 l -1.609161,1.7427 -2.017109,-1.3613 c -4.122541,-2.7823 -8.227258,-3.3819 -12.026346,-1.7568 -4.666687,1.9963 -7.598648,6.6698 -7.598648,12.1123 0,4.5935 3.351905,9.8584 7.379451,11.5911 3.968808,1.7074 10.000859,0.6581 13.165428,-2.2901 0.854236,-0.7958 1.163589,-0.8631 1.961694,-0.4262 1.27704,0.699 2.529036,2.4622 2.255172,3.1758 -0.269289,0.7018 -4.181093,3.4178 -6.076981,4.2193 -1.617958,0.6841 -9.566382,1.0851 -11.451257,0.5778 z"
         id="path3665"
         inkscape:connector-curvature="0"
         transform="scale(0.26458333)" />
      <path
         style="fill:#4e4e50;fill-opacity:1;stroke-width:1.36696"
         d="m 133.46676,1098.7163 c -6.76607,-1.1413 -11.56123,-5.3585 -13.60072,-11.9616 -1.04062,-3.3692 -1.09824,-6.2939 -0.19283,-9.7879 2.0767,-8.0143 8.78738,-13.0437 17.45243,-13.0799 2.9235,-0.012 6.97072,1.0308 8.68384,2.238 0.64001,0.451 1.3223,0.82 1.5162,0.82 0.70539,0 4.3593,4.2409 5.29913,6.1503 1.39256,2.8294 1.87966,5.0496 1.88244,8.5801 0.004,5.0559 -1.58173,8.7964 -5.29086,12.4804 -3.94132,3.9147 -9.69737,5.5814 -15.74963,4.5606 z m 8.75743,-5.8144 c 2.78957,-1.4045 5.34957,-4.4736 6.16709,-7.3935 0.69155,-2.47 0.34465,-7.8328 -0.6279,-9.7065 -1.55294,-2.9921 -3.31215,-4.663 -6.40534,-6.084 -4.1389,-1.9014 -9.2355,-0.945 -12.8827,2.4174 -1.94994,1.7978 -3.77647,6.1658 -3.77647,9.0314 0,9.539 9.3939,15.8294 17.52532,11.7352 z"
         id="path3667"
         inkscape:connector-curvature="0"
         transform="scale(0.26458333)" />
      <path
         style="fill:#4e4e50;fill-opacity:1;stroke-width:1.36696"
         d="m 192.65,1098.6559 c -0.84391,-0.115 -1.72179,-0.3923 -1.95085,-0.6162 -0.22907,-0.224 -0.7438,-0.4072 -1.14387,-0.4072 -1.12358,0 -4.74708,-3.4217 -5.50854,-5.2019 -1.77385,-4.1468 -1.90862,-5.3165 -1.91346,-16.6082 l -0.005,-11.0695 0.98638,-0.056 c 0.54252,-0.031 1.47958,-0.1071 2.08238,-0.1696 2.58697,-0.2682 2.56333,-0.377 2.59156,11.9223 0.0161,6.9974 0.19432,11.4306 0.47073,11.707 0.24467,0.2447 0.44486,0.7625 0.44486,1.1508 0,0.9755 2.55332,3.5078 4.26027,4.2251 0.77588,0.326 2.60462,0.5928 4.06386,0.5928 3.21797,0 5.51096,-1.2566 7.34404,-4.0245 l 1.21001,-1.8272 0.11467,-10.9932 c 0.0631,-6.0462 0.21478,-11.437 0.33715,-11.9796 0.19331,-0.857 0.50178,-0.9863 2.35242,-0.9863 1.2077,0 2.29555,0.2372 2.51242,0.5479 0.21036,0.3014 0.28203,5.9732 0.15926,12.6039 l -0.2232,12.0558 -1.21576,2.3658 c -2.34612,4.5655 -5.83213,6.6073 -11.66396,6.8318 -2.07419,0.08 -4.46172,0.051 -5.30563,-0.064 z"
         id="path3669"
         inkscape:connector-curvature="0"
         transform="scale(0.26458333)" />
      <path
         style="fill:#4e4e50;fill-opacity:1;stroke-width:1.36696"
         d="m 240.43499,1081.6311 c 0,-9.283 0.14796,-16.8889 0.32879,-16.9021 4.66136,-0.3393 4.82139,-0.265 7.56231,3.513 0.60279,0.8308 2.37829,3.1339 3.94555,5.1179 1.56726,1.984 4.42441,5.6431 6.34922,8.1312 4.66745,6.0335 4.6903,6.0584 5.57845,6.0584 0.72422,0 0.75814,-0.7023 0.538,-11.1395 -0.17582,-8.3362 -0.10407,-11.2204 0.28508,-11.4609 0.28601,-0.1768 1.43032,-0.3215 2.54292,-0.3215 l 2.0229,-10e-5 0.11475,16.9409 0.11475,16.9409 -2.08752,-0.014 c -1.14814,-0.01 -2.38344,-0.2543 -2.74512,-0.548 -0.36167,-0.2938 -2.13717,-2.5011 -3.94555,-4.9053 -3.96847,-5.2759 -3.92488,-5.2196 -5.95361,-7.6846 -0.89299,-1.085 -2.4254,-3.0578 -3.40534,-4.384 -2.36649,-3.2025 -2.25081,-3.0532 -3.8218,-4.9305 -0.75602,-0.9034 -1.55199,-1.5329 -1.76882,-1.3989 -0.21759,0.1345 -0.39423,5.5356 -0.39423,12.0544 v 11.8108 h -2.63037 -2.63036 z"
         id="path3671"
         inkscape:connector-curvature="0"
         transform="scale(0.26458333)" />
      <path
         style="fill:#4e4e50;fill-opacity:1;stroke-width:1.36696"
         d="m 307.94772,1084.0423 v -14.467 h -5.25238 c -5.15486,0 -5.2572,-0.019 -5.51223,-1.0353 -0.14292,-0.5695 -0.19599,-1.7038 -0.11795,-2.5208 l 0.1419,-1.4855 h 4.16475 c 2.29061,0 8.45553,0.049 13.69982,0.1096 l 9.53508,0.1096 v 2.1451 c 0,1.5516 -0.19185,2.2187 -0.69345,2.4112 -0.3814,0.1463 -2.84736,0.2661 -5.47993,0.2661 h -4.78648 v 14.467 14.467 h -2.84957 -2.84956 z"
         id="path3673"
         inkscape:connector-curvature="0"
         transform="scale(0.26458333)" />
      <path
         style="fill:#4e4e50;fill-opacity:1;stroke-width:1.36696"
         d="m 361.87023,1091.6821 v -6.8272 l -4.82234,-7.2477 c -2.65229,-3.9863 -4.82234,-7.3251 -4.82234,-7.4196 0,-0.094 -0.69047,-1.133 -1.53438,-2.3076 -0.84391,-1.1747 -1.53438,-2.3678 -1.53438,-2.6514 0,-0.3566 0.89888,-0.4757 2.9134,-0.3861 2.34465,0.1043 3.00791,0.2961 3.39755,0.9825 0.26629,0.4691 0.64142,1.0609 0.83361,1.3152 1.07451,1.4216 3.37691,5.2002 3.37691,5.5421 0,0.2201 0.14795,0.4006 0.32879,0.4012 0.18084,6e-4 1.10527,1.3815 2.05428,3.0688 1.10685,1.9678 1.99992,3.0677 2.49092,3.0677 0.66881,0 2.57871,-2.0828 2.57871,-2.8122 0,-0.1461 0.69047,-1.2479 1.53438,-2.4486 0.84391,-1.2006 1.53438,-2.3823 1.53438,-2.6258 0,-0.2436 0.19728,-0.4429 0.4384,-0.4429 0.24111,0 0.43839,-0.228 0.43839,-0.5066 0,-0.2787 0.49319,-1.1533 1.09599,-1.9436 0.60279,-0.7903 1.09598,-1.5754 1.09598,-1.7447 0,-0.1692 0.49332,-0.7649 1.09625,-1.3237 0.95432,-0.8844 1.39421,-0.9823 3.39756,-0.756 1.26572,0.1429 2.3643,0.3117 2.44129,0.375 0.077,0.063 -2.04374,3.4144 -4.71274,7.447 -2.669,4.0326 -4.85272,7.5041 -4.85272,7.7146 0,0.2104 -0.19728,0.3826 -0.4384,0.3826 -0.24112,0 -0.43839,0.296 -0.43839,0.6576 0,0.3617 -0.16231,0.6576 -0.36069,0.6576 -0.19838,0 -0.79021,0.8601 -1.31518,1.9112 -0.84991,1.7018 -0.9545,2.6145 -0.9545,8.3295 v 6.4183 h -2.63037 -2.63036 z"
         id="path3675"
         inkscape:connector-curvature="0"
         transform="scale(0.26458333)" />
    </g>
  </g>
</svg>
