<?xml version="1.0" encoding="UTF-8"?>
<svg id="Layer_1" xmlns="http://www.w3.org/2000/svg" version="1.1" viewBox="0 0 2000 434.5">
  <!-- Generator: Adobe Illustrator 29.8.0, SVG Export Plug-In . SVG Version: 2.1.1 Build 86)  -->
  <defs>
    <style>
      .st0 {
        fill: #79bd12;
      }
    </style>
  </defs>
  <path class="st0" d="M0,434.5h2000V160.2c0-33.92-11.3-73.16-10.6-73.16-1.92,0-1.84,28.86-9.08,46.92-5.9,14.73-10.6,25.23-23.89,37.41,1.82-26.68,2.76-37.65,15.14-72.88-.01.03-.02.05-.03.08,5.6-13.19,5.11-13,20.99-46.55,2.74-4.1-35.95,34.9-51.78,63.41-3.27,5.91-6.4,11.87-9.34,17.92-9.77-57.46-25.4-100.71-25.4-100.71,0,0,4.34,50.99.71,87.39-2.96,18.15-7.98,35.9-12.89,53.61-1.43-47.31-18.72-84.77-17.78-80.67,2.76,43.52,1.09,52.68-12.74,94.68-1.59-31.24-10.22-73.72-10.22-69.61-5.43,41.94-6.2,50.45-9.84,64.26-1.27-11.23-.94-9.39-4.39-34.67l.59,4.33c-1.41-13.38-1.73-26.48-.37-39.83,3.57-23.92,12.56-52.7,13.67-54.27-11.53,16.3-22.32,31.64-43.09,83.92-12.94-60.08-57.54-133.78-55.64-127.71,9.08,32.5,19.66,65.22,17.25,121.3-4.68-25.87-11.45-70.09-34.5-90.39-.08-.04-.13.03-.1.08,19.64,29.5,11.29,79.35,5.71,115.32-3.04-34.43-.87-38.81-9.86-83.88-.16-.54-1.01,6.81-1.09,7.42.68-4.1-3.81,32.21-7.98,49.88-26.47-164.96-2.21-76.35-38.48,51.44-.24-3.24-.85-17.29-1.29-28.14-.04-2.82-.15-5.51-.32-8.08,0-.08,0-.17,0-.25v.04c-1.83-28.35-10.34-42.04-14.57-57.39-2.71,16.96.68,42.73-6.58,52.41.39-1.48-8.72-39.75,2.83-83.94-.02.03-.05.06-.08.09,1.04-3.37-22.43,29.32-29.77,40.46,1.66-23.68-.04-47.97-3.41-71.47-.01.06-.03.12-.04.17-.04-.3-.07-.24-.07-.24,0,0-2.65,48.71-26.71,107.53,4.71-23.39,9.86-38.19,14.39-54.87-.02.03-.05.07-.08.1.71-2.58-23.82,30.41-34.53,54.82,3.18-31.34,5.81-54.14,7.87-70.99-.03.04-.05.08-.08.12.48-3.57-20.94,32.54-31.93,64.19-2.09-31.32-5.8-60.8-15.8-101.05,0,.05,0,.09-.01.14-.01-.04-.02-.08-.03-.12,0,0-4.67,70.76-10.41,104.6-2.17-11.52-4.01-20.27-6.83-32.05,0,.03-.02.06-.03.09-.02-.1-.04-.17-.15-.07-5.27,18.03-8.78,33.62-11.87,49.63-5.87-33.18-.06-77.32.32-81.89-.03.06-.06.12-.09.18.06-.33-.11-.31-.11-.22-11.34,23.33-22.42,51.15-29.76,73.19.35-18.28,2.66-54.59,7.89-96.6-.03.08-.06.16-.1.25.05-.37-.1-.35-.1-.25-6.93,18.26-14.83,43.25-19.1,58.92-1.23-12.5-2.9-29.27-10.68-66.15v.28s3.61,57.08-6.49,109.42c.17-13.21.34-23.57-1.32-67.99-.02.12-.04.24-.05.36-.02-.53-.08-.43-.08-.43,0,0-3.65,39.51-15.19,102.51-1.76-28.69,16.07-58.66-15.95-182.45l-.09-.11s4.33,94.01-14.19,178.11c2.32-44.88-7.15-97.86-18.71-141.33,0,.05,0,.1-.02.14-.01-.04-.02-.08-.03-.12-.58-.58-4.36,82.99-4.39,83.81-1.07-8.83-1.69-13.19-2.54-18.45-.01.05-.02.11-.04.17-.26-2.63-7.64,37.4-8.08,40.05.49-17.99,2.22-28.97,2.16-75.09-.02.04-.04.09-.06.13,0-.27-.13-.25-.13-.17-21,43.1-27.63,68.92-32.49,93.54-2.35-46.49-1.65-71.81,6.66-124.55-.04.09-.07.17-.11.26.01-.09.03-.17.04-.26.04-.09-.13-.12-.13-.04-7.22,18.2-17.75,49.66-22.94,72.97-3.24-18.99-7.07-34.78-14.93-57.54.29,3.8,1.55,48.65-9.51,104.29-.42-15.37-1.24-29.1-2.43-43.49-.02.06-.04.11-.05.17-.36-3.84-12.28,46.97-14.77,58.57.21-20.22,5.44-78.67,7.58-108.88-.02.06-.05.12-.08.18.03-.33-.12-.31-.12-.22-13.08,30.59-17.42,44.49-22.71,60.66-2.12-36.84-8.7-59.17-20.32-92.36v.15c-.09-.24-.23-.21-.18-.11,2.24,53.74,3.47,79.56-10.37,143.57-.45.13-.95.3-1.43.48-.72-29.47-2.34-58.04-11.01-119.17,0,.09-.02.17-.03.26-.05-.42-.1-.33-.1-.33,0,0-5.7,76.83-11.6,116.55-.75-.31-1.36-.48-2.02-.61,0-32.45,1-38.8-4.08-74.2-.01.05-.03.11-.04.16-.03-.14-.02-.3-.16-.16-12.2,56.99-5.8,27.45-13.01,58.17,3.37-32.62,3.29-79.33,2.64-112.06-.02.08-.04.17-.06.25,0-3.3-12.87,62.19-15.58,74.5-.47-13.14-1.18-24.61-2.56-37.27l-.05.15c-.03-.26-.14-.28-.14-.17-1.32,4.66-7.11,24.08-11.59,41.75,2.64-59.14,4.76-70.13,14.37-118.07-.04.1-.09.21-.13.31.9-4.55-22.91,43.1-34.65,137.57.6-37.09-8.64-84.65-21.3-120.21,0,.06,0,.12.01.19-.02-.06-.04-.11-.06-.17,0-.03-.22-1.04.46,5.06,1.7,19.54,1.16,7.02,2.24,27.29.72,14.67.42,30.15-.24,38.71-.44,5.93-1.46,18.91-2.72,26.76-4.1,25.41-4.65,27.61-7.32,41.11-4.22-41.73-3.53-42.49-3.07-52.25-.03.08-.05.16-.08.24,0-.41-.12-.38-.12-.26-7.55,26.06-18.22,83.93-22.97,109.94,1.18-30.58,1.75-86.39,16.22-159.11-.04.08-.08.17-.12.25.07-.4-.08-.42-.08-.32-11.68,26.07-18.21,48.41-25.84,75.94,1.37-26.03-.38-50.6-6.66-76.84,0,.05,0,.1-.01.14,0,0-.73,31.36-18.39,99.22-.07-20.42-2.94-40.07-6.14-60.22l-.03.24s-.01-.08-.02-.12c.17,1.33.95,14.72-17.08,104.1-7.37-43.95-8.56-49.42,14.17-135.96-.03.04-.05.08-.08.12.01-.05.02-.1.03-.14,0-4.38-24.16,40.59-31.24,56.4,1.03-24.77.15-49.19-5.78-73.13,0,.06,0,.13,0,.19,0,0,.04,17.3-2.5,36.76l.12-.48c-3.55,25.59-16.51,86.85-17.61,91.41-1.22-18.54-3.43-36.77-6.96-56.51-.02.04-.03.08-.05.12-.34-2.53-11.57,36.97-12.2,39.45-.32-7.9-.34-8.83-.72-16.01-.02.03-.04.07-.06.1-.17-2.07-14.68,27.14-15.55,29.03,10.7-42.3,23.7-68.1,38.35-99.97-.03.03-.06.06-.1.09,1.47-3.19-31.86,29.77-49.99,57.85,6.54-25.49,10.95-50.33,12.41-84.89-.02.08-.05.17-.08.25.01-.41-.06-.4-.12-.27-18.87,66.66-29.27,76.34-47.7,117.11,9.4-54.83,12.58-94.3,29.78-145.38-.04.06-.08.12-.11.18.14-.38-.04-.38-.04-.26-23,37.3-39.49,84.8-49.28,127.68,2.04-22.02-4.33-61.48-8.38-80.5,0,.08-.01.15-.02.23-.05-.3-.09-.25-.09-.25-.1,0-.66,8.19-.67,8.28-.16,1.82-1.87,21.28-2.05,23.41-.52,7-1.66,13.81-2.59,21.08-3.22,18.91-5.69,23.73-11.25,38.4-2.84,6.66-3.99,9.49-5.13,12,1.34-8.84,18.31-130.28,19.98-142.03-.03.06-.06.12-.09.19.02-.12.07-.3-.06-.3,0,0-.02.02-.04.04-17.93,38.4-34.58,86.35-38.45,101.83-3.52-24.68-10.83-55.75-30.7-104.38.01.08.03.16.04.23-.03-.07-.06-.14-.09-.21,0-.33,10.3,52.25,12.79,70.29,3.1,23.6,3.96,49.16,2.58,75.98-2.86-29.66-7.31-57.33-12.89-83.22l-.02.22c-.09-.54-5.22,60.18-5.22,60.31-3.55-56.34-9.96-99.56-17.96-137.12,0,.07-.02.14-.03.21-.04-.17-.03-.33-.17-.19-.66,5.64-12.03,104.15-15.05,148.77-2.14-16.9-4.41-30.04-16.86-64.16v.12s-.03-.07-.04-.1c0-4.55-.2,52.5-7.27,84.67-.26-14.37-1.16-29.12-3.63-48.29-.02.05-.03.09-.05.14-.02-.21-10.49,31.99-10.56,32.19,3.86-29.72,10.56-62.97,19.2-91.91-.04.07-.08.15-.12.22.12-.39.04-.4-.06-.31-22.22,43.05-37.1,98.88-42.89,130.9-3.97-90.51-4.58-133.71,12.05-192.77-.03.04-.06.08-.08.12.02-.05.03-.09.04-.14,0-.08-.13-.12-.13-.04-24.84,36.5-40.49,79.67-49.62,122.83-10.17-36.01-27.17-61.55-48.03-82.67.05.08.1.16.15.24,0,0,21.53,27.9,27.02,64.63,1.81,17.03.54,34.37-1.09,50.59-8.18-57-19.03-76.21-31.41-93,2.06,3.81,9.3,21.97,12.35,42.24,2.57,12.47,1.86,43.03,1.25,55.99-.99,22.57-2.04,37.58-2.44,49.91-2.14-39.2-5.74-80.57-14.93-117.17,0,.06,0,.11,0,.17,0,0-.27,21.71-3.29,72.59-5.63-56.85-6.21-78.45-9.6-118.07-.02.06-.04.12-.05.18-.14-1.55-9.86,29.18-15.16,66.45-1.04-5.06-1.74-7.68-1.74-6.51-5.43,41.94-6.2,50.45-9.84,64.26-1.27-11.23-.94-9.39-4.39-34.67l.59,4.33c-1.41-13.38-1.73-26.48-.37-39.83,3.57-23.92,12.56-52.7,13.67-54.27-11.53,16.3-22.32,31.64-43.09,83.92-12.94-60.08-57.54-133.78-55.64-127.71,9.08,32.5,19.66,65.22,17.25,121.3-4.68-25.87-11.45-70.09-34.5-90.39-.08-.04-.13.03-.1.08,19.64,29.5,11.29,79.35,5.71,115.32-3.04-34.43-.87-38.81-9.86-83.88-.16-.54-1.01,6.81-1.09,7.42.68-4.1-3.81,32.21-7.98,49.88-26.47-164.96-2.21-76.35-38.48,51.44-1.7-22.71-5.11-153.35-1.88-162.8-2.55,4.95-15.73,40.39-16,41.16-7.3,21.26-12.88,41.24-18.45,63.11-4.7-25.57-10.91-47.7-21.46-71.46,0,0,.56,16.34.32,22.99-1.49,38.53-6.46,48.15-23.13,84.8-1.29,2.84-2.47,5.73-3.71,8.59-.5-32.49,4.4-44.84,14.28-69.97,2.55-5.48,6.49-14.06,6.49-14.06-1.5,0-20.82,24.85-21.76,26.12-15.19,20.52-20.42,30.85-28.7,48.62.44-9.27,1.12-18.53,2-27.76,6.29-42.5,18.41-69.02,39.46-98.57,4.11-4.1-22.08,13.73-43.66,42.12-7.12,9.37-29.94,42.83-42.15,79.93.72-16.53,5.18-55.02-1.89-100.88-.02-.08-.12-.06-.14.02-1.1,29.78-4.85,63.17-14.22,91.58,1.92-61.2,4.39-80.23,10.54-143.77.02-.08-.1-.08-.12-.02-12.53,39.56-22.87,79.8-30.02,120.7-5.66-58.63-20.07-98.87-20.07-98.87,0,0,5.36,55.66-.26,111.33-12.7-55.89-43.98-106.78-43.98-106.78,0,0,21.61,78.28,19.38,147.93-53.13-149.56-16.53-77.91-33.39,5.51-11.36-68.91-1.69-68.06-27.3-2.44,7.2-44.47,28.89-110.47,28.89-110.47-21.03,35.63-35.21,61.91-46.13,93.58,8.15-77.62,36.25-113.24,55.96-141.1,2.14-2.67,15.39-19.22,15.38-19.22-.01,0-.03,0-.04.02-58.17,51.79-78.64,96.88-93.01,126.9-2.17-25.77-3.41-47.23-1.95-94.47.11-3.69-19.24,44.94-25.14,76.62C40.65,66.32,22.02,46.65,22.02,46.65c0,0,16.61,25.32,12.9,110.26-.23,5.32-.31,10.66-.3,16C28.76,93.1,2.45,61.68,3.03,65.85c5.46,39.29-3.03,63.07-3.03,93.34v275.31Z"/>
</svg>